<?xml version="1.0" encoding="UTF-8"?><svg id="a" xmlns="http://www.w3.org/2000/svg" width="2.2525in" height="1.65in" viewBox="0 0 162.1824 118.8"><polygon points="130.0762 81.8246 134.793 81.1623 130.0471 64.6942 130.0762 81.8246" fill="#00643a"/><path d="M140.438,37.3757l-27.4875,3.8595,8.734,62.0879,27.4875-3.8595-8.734-62.0879ZM136.0961,85.591l-6.0507.8496.012,6.6481-4.8596.6824.7444-34.0827,7.0989-.9968,10.1187,32.5574-5.2408.7359-1.8228-6.3939Z" fill="#00643a"/><path d="M21.0277,24.8055v78.3726h27.7576V24.8055h-27.7576ZM37.5529,94.2074h-5.2928v-33.6475h5.2928v33.6475Z" fill="#00643a"/><path d="M53.1116,13.9539v89.2242h27.7576V13.9539h-27.7576ZM66.8939,94.688c-5.1959,0-7.7941-3.0764-7.7941-8.4597v-1.9228h5.0039v2.307c0,2.4034,1.0581,3.2687,2.7424,3.2687s2.7903-.8653,2.7903-3.3646c0-2.7881-1.1546-4.5186-4.6188-7.5468-4.4263-3.8934-5.9177-6.6815-5.9177-10.5267,0-5.2874,2.7424-8.3638,7.8906-8.3638s7.698,3.0764,7.698,8.4597v1.3941h-5.0038v-1.7305c0-2.4035-.9621-3.3164-2.6464-3.3164s-2.6942.913-2.6942,3.2205c0,2.4512,1.2028,4.1817,4.6671,7.2103,4.4263,3.8934,5.8699,6.6333,5.8699,10.815,0,5.4798-2.7907,8.5561-7.987,8.5561Z" fill="#00643a"/><path d="M85.1955,24.8055v78.3726h27.7576V24.8055h-27.7576ZM107.2534,65.3667h-5.5331v28.8407h-5.2923v-28.8407h-5.5327v-4.8068h16.3581v4.8068Z" fill="#00643a"/></svg>